<?xml version="1.0" encoding="UTF-8" standalone="no"?>
<!-- Created with Inkscape (http://www.inkscape.org/) -->

<svg
   xmlns:dc="http://purl.org/dc/elements/1.1/"
   xmlns:cc="http://creativecommons.org/ns#"
   xmlns:rdf="http://www.w3.org/1999/02/22-rdf-syntax-ns#"
   xmlns:svg="http://www.w3.org/2000/svg"
   xmlns="http://www.w3.org/2000/svg"
   xmlns:sodipodi="http://sodipodi.sourceforge.net/DTD/sodipodi-0.dtd"
   xmlns:inkscape="http://www.inkscape.org/namespaces/inkscape"
   width="108.47796mm"
   height="51.923019mm"
   viewBox="0 0 108.47796 51.923019"
   version="1.1"
   id="svg8"
   inkscape:version="0.92.3 (2405546, 2018-03-11)"
   sodipodi:docname="imagen_de_ejemplo.svg">
  <defs
     id="defs2" />
  <sodipodi:namedview
     id="base"
     pagecolor="#ffffff"
     bordercolor="#001cda"
     borderopacity="1"
     inkscape:pageopacity="0.0"
     inkscape:pageshadow="2"
     inkscape:zoom="2.8268607"
     inkscape:cx="204.99772"
     inkscape:cy="98.122241"
     inkscape:document-units="mm"
     inkscape:current-layer="layer1"
     showgrid="true"
     showguides="true"
     inkscape:guide-bbox="true"
     inkscape:window-width="1366"
     inkscape:window-height="742"
     inkscape:window-x="0"
     inkscape:window-y="0"
     inkscape:window-maximized="1"
     inkscape:snap-tangential="false"
     inkscape:showpageshadow="false"
     inkscape:snap-global="false">
    <sodipodi:guide
       position="-35.635293,-133.07699"
       orientation="1,0"
       id="guide815"
       inkscape:locked="false"
       inkscape:label=""
       inkscape:color="rgb(0,0,255)" />
    <sodipodi:guide
       position="154.36471,-133.07699"
       orientation="1,0"
       id="guide817"
       inkscape:locked="false"
       inkscape:label=""
       inkscape:color="rgb(0,0,255)" />
    <inkscape:grid
       type="xygrid"
       id="grid857"
       units="mm"
       spacingx="1"
       spacingy="1"
       dotted="false"
       originx="-45.635294"
       originy="-133.07698" />
  </sodipodi:namedview>
  <metadata
     id="metadata5">
    <rdf:RDF>
      <cc:Work
         rdf:about="">
        <dc:format>image/svg+xml</dc:format>
        <dc:type
           rdf:resource="http://purl.org/dc/dcmitype/StillImage" />
        <dc:title />
        <dc:creator>
          <cc:Agent>
            <dc:title>Matías Senger</dc:title>
          </cc:Agent>
        </dc:creator>
        <cc:license
           rdf:resource="http://creativecommons.org/publicdomain/zero/1.0/" />
      </cc:Work>
      <cc:License
         rdf:about="http://creativecommons.org/publicdomain/zero/1.0/">
        <cc:permits
           rdf:resource="http://creativecommons.org/ns#Reproduction" />
        <cc:permits
           rdf:resource="http://creativecommons.org/ns#Distribution" />
        <cc:permits
           rdf:resource="http://creativecommons.org/ns#DerivativeWorks" />
      </cc:License>
    </rdf:RDF>
  </metadata>
  <g
     inkscape:label="Capa 1"
     inkscape:groupmode="layer"
     id="layer1"
     transform="translate(-45.635292,-112)">
    <path
       style="opacity:1;vector-effect:none;fill:none;fill-opacity:1;stroke:#000000;stroke-width:0.26458332;stroke-linecap:butt;stroke-linejoin:miter;stroke-miterlimit:4;stroke-dasharray:none;stroke-dashoffset:0;stroke-opacity:1"
       d="M 50,162 V 112"
       id="path815"
       inkscape:connector-curvature="0" />
    <path
       style="opacity:1;vector-effect:none;fill:none;fill-opacity:1;stroke:#000000;stroke-width:0.26458332;stroke-linecap:butt;stroke-linejoin:miter;stroke-miterlimit:4;stroke-dasharray:none;stroke-dashoffset:0;stroke-opacity:1"
       d="m 50,162 h 90"
       id="path817"
       inkscape:connector-curvature="0" />
    <text
       xml:space="preserve"
       style="font-style:normal;font-variant:normal;font-weight:normal;font-stretch:normal;font-size:3.5px;line-height:1.25;font-family:sans-serif;font-variant-ligatures:normal;font-variant-position:normal;font-variant-caps:normal;font-variant-numeric:normal;font-variant-alternates:normal;font-feature-settings:normal;text-indent:0;text-align:start;text-decoration:none;text-decoration-line:none;text-decoration-style:solid;text-decoration-color:#000000;letter-spacing:0px;word-spacing:0px;text-transform:none;writing-mode:lr-tb;direction:ltr;text-orientation:mixed;dominant-baseline:auto;baseline-shift:baseline;text-anchor:start;white-space:normal;shape-padding:0;opacity:1;vector-effect:none;fill:#000000;fill-opacity:1;stroke:none;stroke-width:0.26458332;stroke-linecap:butt;stroke-linejoin:miter;stroke-miterlimit:4;stroke-dasharray:none;stroke-dashoffset:0;stroke-opacity:1;paint-order:markers stroke fill"
       x="141.37619"
       y="163.19499"
       id="text821"><tspan
         sodipodi:role="line"
         id="tspan819"
         x="141.37619"
         y="163.19499"
         style="stroke-width:0.26458332">Tiempo</tspan></text>
    <text
       xml:space="preserve"
       style="font-style:normal;font-variant:normal;font-weight:normal;font-stretch:normal;font-size:3.5px;line-height:1.25;font-family:sans-serif;font-variant-ligatures:normal;font-variant-position:normal;font-variant-caps:normal;font-variant-numeric:normal;font-variant-alternates:normal;font-feature-settings:normal;text-indent:0;text-align:start;text-decoration:none;text-decoration-line:none;text-decoration-style:solid;text-decoration-color:#000000;letter-spacing:0px;word-spacing:0px;text-transform:none;writing-mode:lr-tb;direction:ltr;text-orientation:mixed;dominant-baseline:auto;baseline-shift:baseline;text-anchor:start;white-space:normal;shape-padding:0;opacity:1;vector-effect:none;fill:#000000;fill-opacity:1;stroke:none;stroke-width:0.26458332;stroke-linecap:butt;stroke-linejoin:miter;stroke-miterlimit:4;stroke-dasharray:none;stroke-dashoffset:0;stroke-opacity:1;paint-order:markers stroke fill"
       x="-144.68225"
       y="48.294472"
       id="text825"
       transform="rotate(-90)"><tspan
         sodipodi:role="line"
         id="tspan823"
         x="-144.68225"
         y="48.294472"
         style="stroke-width:0.26458332">Distancia</tspan></text>
    <path
       style="opacity:1;vector-effect:none;fill:#ff0000;fill-opacity:1;stroke:none;stroke-width:0.26458332;stroke-linecap:butt;stroke-linejoin:miter;stroke-miterlimit:4;stroke-dasharray:none;stroke-dashoffset:0;stroke-opacity:1;paint-order:markers stroke fill"
       id="path831"
       d="m 51.130514,161.71354 c 0.214381,0.0233 0.430578,0.0269 0.64598,0.0338 0.471771,0.0243 0.941422,0.0287 1.411724,-0.0168 0.686565,-0.0689 1.351156,-0.25724 2.00909,-0.45637 0.81388,-0.23125 1.583751,-0.57985 2.345232,-0.94303 0.847114,-0.40096 1.66528,-0.85799 2.464279,-1.34689 0.824725,-0.51007 1.617501,-1.06854 2.396543,-1.64524 0.778161,-0.57138 1.508757,-1.20152 2.214925,-1.85866 0.721553,-0.67898 1.369891,-1.42897 2.007444,-2.18571 0.635879,-0.74945 1.180513,-1.56863 1.707322,-2.39647 0.537752,-0.82796 1.0097,-1.69433 1.462275,-2.57084 0.484931,-0.95988 0.928389,-1.93937 1.347928,-2.92931 0.464481,-1.0969 0.930532,-2.19312 1.400461,-3.2877 0.511701,-1.19772 1.051721,-2.38297 1.594305,-3.56692 0.568928,-1.25828 1.176835,-2.49813 1.79397,-3.73328 0.628407,-1.24845 1.292558,-2.47811 1.977938,-3.69606 0.674904,-1.16429 1.393878,-2.30178 2.120384,-3.43426 0.658712,-1.0355 1.386699,-2.02454 2.12658,-3.00289 0.650179,-0.84308 1.370402,-1.62733 2.110396,-2.3914 0.668997,-0.69034 1.395958,-1.31937 2.133381,-1.93455 0.634613,-0.52872 1.300302,-1.0197 1.980618,-1.48774 0.614455,-0.42219 1.264033,-0.78581 1.930683,-1.11767 0.638918,-0.31897 1.29427,-0.60278 1.951482,-0.88143 0.585356,-0.25186 1.190416,-0.44977 1.804085,-0.61898 0.578432,-0.16403 1.167839,-0.28147 1.759791,-0.38382 0.561592,-0.095 1.124305,-0.17529 1.693421,-0.20214 0.511675,-0.0263 1.0214,0.0279 1.528754,0.0869 0.490739,0.0649 0.973245,0.17113 1.449125,0.30572 0.44569,0.12783 0.87798,0.29444 1.30436,0.47536 0.43513,0.1939 0.84269,0.44125 1.25154,0.68404 0.41208,0.2521 0.81371,0.52046 1.21365,0.79123 0.42186,0.28116 0.83655,0.57244 1.25039,0.86518 0.43638,0.31559 0.86982,0.63512 1.30302,0.95503 0.44393,0.32906 0.8752,0.67561 1.29558,1.03423 0.42744,0.35122 0.8264,0.73422 1.20879,1.13346 0.40577,0.4149 0.7688,0.86698 1.11755,1.32991 0.37266,0.49545 0.70177,1.02094 1.01686,1.5542 0.32341,0.56346 0.64628,1.12743 0.96061,1.69603 0.33973,0.62067 0.67159,1.24557 1.00912,1.86745 0.35814,0.65007 0.70334,1.30724 1.0445,1.96636 0.35136,0.68104 0.68598,1.36986 1.01038,2.06408 0.33807,0.71188 0.65703,1.43208 0.95942,2.15975 0.30407,0.72623 0.58879,1.46011 0.8602,2.19908 0.2582,0.72223 0.55152,1.43102 0.84734,2.13842 0.28605,0.68689 0.5987,1.36207 0.90174,2.0415 0.30105,0.67681 0.57358,1.36593 0.84583,2.0547 0.2699,0.68613 0.52454,1.3783 0.77696,2.07103 0.2417,0.68691 0.50653,1.36509 0.76463,2.04589 0.24871,0.65359 0.50073,1.30586 0.74625,1.96067 0.23102,0.62235 0.46261,1.24441 0.70088,1.86404 0.21928,0.59283 0.44897,1.18156 0.66205,1.77666 0.18906,0.549 0.39969,1.09011 0.59796,1.63573 0.20011,0.52914 0.38109,1.06514 0.56417,1.60034 0.1582,0.47118 0.3118,0.94387 0.4634,1.41721 0.11657,0.37911 0.2422,0.75542 0.36928,1.13113 0.10025,0.30624 0.20872,0.60964 0.31311,0.91446 0.0858,0.25224 0.17915,0.50171 0.26877,0.75259 0.0595,0.17363 0.12353,0.34566 0.18475,0.51871 0.13683,0.40488 -0.43575,0.59838 -0.57258,0.19351 v 0 c -0.0557,-0.17307 -0.1179,-0.34388 -0.17313,-0.51709 -0.0862,-0.25483 -0.17346,-0.50924 -0.25787,-0.76467 -0.0993,-0.30762 -0.20543,-0.61302 -0.30073,-0.92193 -0.12021,-0.38119 -0.23396,-0.76437 -0.34988,-1.14687 -0.14009,-0.47243 -0.28241,-0.9442 -0.43409,-1.41307 -0.17538,-0.53364 -0.36168,-1.06289 -0.55789,-1.58927 -0.198,-0.54708 -0.40145,-1.09222 -0.58758,-1.64351 -0.20762,-0.59289 -0.4332,-1.17939 -0.64775,-1.7698 -0.23396,-0.62246 -0.47261,-1.24312 -0.69505,-1.86988 -0.24209,-0.65533 -0.4935,-1.3071 -0.73744,-1.96173 -0.25629,-0.683 -0.52106,-1.36283 -0.76171,-2.05159 -0.25414,-0.68854 -0.50299,-1.37918 -0.77602,-2.06055 -0.26513,-0.68433 -0.53688,-1.36606 -0.83601,-2.0364 -0.30097,-0.68436 -0.61452,-1.36326 -0.90332,-2.05291 -0.29408,-0.71471 -0.58208,-1.43177 -0.84476,-2.15877 -0.27247,-0.73165 -0.55284,-1.46053 -0.84894,-2.18297 -0.30343,-0.72015 -0.62599,-1.432 -0.95936,-2.13878 -0.32343,-0.68791 -0.6569,-1.37085 -1.00694,-2.04569 -0.33891,-0.65615 -0.69058,-1.30561 -1.0436,-1.95426 -0.34149,-0.61844 -0.67667,-1.24029 -1.0208,-1.85726 -0.31533,-0.563 -0.64488,-1.11792 -0.96378,-1.67891 -0.3065,-0.51617 -0.63305,-1.02043 -0.99172,-1.50218 -0.3398,-0.44496 -0.69662,-0.87605 -1.08894,-1.27627 -0.37115,-0.38587 -0.75552,-0.75865 -1.16949,-1.09895 -0.41265,-0.35001 -0.83304,-0.69176 -1.27079,-1.01007 -0.42854,-0.31962 -0.86003,-0.63511 -1.29568,-0.945 -0.41094,-0.29089 -0.82833,-0.57196 -1.24736,-0.85105 -0.39131,-0.26575 -0.78622,-0.526 -1.18985,-0.77281 -0.38602,-0.23349 -0.77707,-0.46048 -1.1901,-0.64354 -0.40486,-0.17496 -0.81527,-0.33599 -1.23884,-0.4607 -0.446685,-0.13193 -0.902295,-0.2281 -1.363857,-0.29182 -0.478624,-0.0595 -0.959147,-0.10876 -1.442371,-0.0944 -0.547349,0.0217 -1.090189,0.0868 -1.630267,0.17907 -0.576223,0.0988 -1.14943,0.21513 -1.713193,0.37132 -0.594075,0.15981 -1.180995,0.34532 -1.750224,0.58011 -0.650373,0.26594 -1.297432,0.54121 -1.926654,0.85459 -0.646001,0.32717 -1.280909,0.67454 -1.882066,1.07987 -0.67505,0.45167 -1.337257,0.92423 -1.968301,1.43602 -0.734785,0.59476 -1.455217,1.20821 -2.11872,1.88294 -0.734528,0.74884 -1.452536,1.51459 -2.106062,2.33624 -0.751933,0.95744 -1.479145,1.93476 -2.146451,2.95361 -0.729477,1.12338 -1.447578,2.25476 -2.119188,3.41395 -0.692222,1.20744 -1.358853,2.43 -1.982661,3.67432 -0.609989,1.23469 -1.201899,2.47813 -1.777113,3.72941 -0.532778,1.18567 -1.054592,2.37625 -1.561322,3.5733 -0.464966,1.09603 -0.922563,2.19518 -1.371939,3.2977 -0.417536,1.00076 -0.86011,1.99086 -1.339834,2.96354 -0.446238,0.89447 -0.928016,1.7704 -1.471332,2.61022 -0.534678,0.84392 -1.101556,1.67077 -1.743059,2.43777 -0.647258,0.76955 -1.31145,1.52641 -2.037522,2.22339 -0.713618,0.67302 -1.46096,1.30776 -2.250673,1.89052 -0.790025,0.58139 -1.588944,1.1498 -2.426031,1.66252 -0.807905,0.50167 -1.632135,0.97719 -2.492621,1.38399 -0.777322,0.38041 -1.562557,0.74841 -2.393928,0.9973 -0.684409,0.22034 -1.375482,0.4275 -2.09045,0.5228 -0.488203,0.06 -0.975632,0.0806 -1.467387,0.0858 -0.215402,0.007 -0.431599,0.0105 -0.64598,0.0338 -0.453662,0 -0.453662,-0.64158 0,-0.64158 z"
       inkscape:connector-curvature="0" />
  </g>
</svg>
